<svg width="129" height="38" fill="none" viewBox="0 0 129 38" xmlns="http://www.w3.org/2000/svg"><path d="M11.618 11.765c-.172 1.699-.744 3.083-1.717 4.026-1.03.944-2.346 1.447-4.006 1.447a5.781 5.781 0 01-3.09-.88c-.86-.63-1.546-1.447-2.061-2.58A11.003 11.003 0 010 9.815v-1.51c0-1.51.229-2.831.744-4.027.458-1.132 1.202-2.076 2.118-2.705.915-.63 2.003-.944 3.205-.944 1.602 0 2.918.503 3.891 1.447.973.944 1.546 2.328 1.717 4.09H9.157c-.114-1.133-.458-2.014-.916-2.517-.515-.503-1.202-.755-2.174-.755-1.145.063-2.004.503-2.633 1.384-.572.88-.859 2.202-.859 3.9v1.448c0 1.761.287 3.083.859 3.963.572.944 1.373 1.384 2.518 1.384.973 0 1.774-.251 2.232-.755.515-.503.801-1.32.973-2.453h2.461zm7.04 5.222h-2.519V.88h2.518v16.106zm16.826 0h-2.519l-6.581-11.45v11.45h-2.518V.88h2.518l6.524 11.45V.881h2.576v16.106zm13.62-7.172h-6.009v4.97h7.04v2.202H40.52V.88h9.5v2.265h-6.925v4.467h6.01v2.202zM57.576.88l4.235 12.33L66.045.882h3.263v16.106h-2.519v-5.285l.23-7.11-4.35 12.395h-1.832L56.545 4.593l.229 7.109v5.285h-2.519V.88h3.32zm25.354 8.934h-6.01v4.97h7.04v2.202H74.4V.88h9.5v2.265H76.92v4.467h6.01v2.202zm9.9-1.322L96.207.881h2.805l-4.922 10.192v5.914H91.57v-5.914L86.65.88h2.804l3.377 7.612zm18.429 1.322h-6.009v4.97h7.039v2.202h-9.557V.88h9.443v2.265h-6.982v4.467h6.009v2.202h.057zm-66.732 24.41l3.72-12.583h2.805l-5.266 16.106h-2.46l-5.266-16.106h2.804l3.663 12.583zm12.934 3.523h-2.518V21.642h2.519v16.106zm12.878-4.152c0-.692-.23-1.258-.687-1.636-.458-.377-1.26-.755-2.461-1.132-1.202-.378-2.118-.818-2.805-1.321-1.316-.944-2.003-2.14-2.003-3.587 0-1.32.458-2.39 1.431-3.208.973-.818 2.232-1.258 3.778-1.258 1.03 0 1.945.188 2.747.629.8.44 1.43 1.006 1.888 1.761.458.755.687 1.573.687 2.517h-2.518c0-.818-.23-1.51-.744-1.95-.458-.504-1.145-.693-2.06-.693-.859 0-1.488.19-1.946.567-.458.377-.687.944-.687 1.636 0 .566.229 1.07.744 1.51.515.377 1.316.754 2.46 1.132 1.145.377 2.061.818 2.748 1.258.687.503 1.202 1.007 1.545 1.636.344.63.458 1.321.458 2.139 0 1.321-.458 2.39-1.43 3.209-.916.818-2.175 1.195-3.778 1.195-1.087 0-2.06-.189-2.919-.63-.858-.44-1.602-1.006-2.06-1.76-.515-.756-.744-1.636-.744-2.643H64.5c0 .944.286 1.636.801 2.139.573.503 1.317.755 2.347.755.858 0 1.545-.189 2.003-.566.458-.504.687-1.07.687-1.699zm9.5 4.152H77.32V21.642h2.518v16.106zm16.883-7.612c0 1.573-.228 2.957-.744 4.152-.515 1.195-1.202 2.076-2.117 2.768-.916.63-2.003.944-3.205.944a5.693 5.693 0 01-3.205-.944c-.916-.629-1.66-1.573-2.175-2.705-.515-1.195-.744-2.517-.744-4.09v-.88c0-1.573.229-2.957.744-4.152.515-1.196 1.202-2.14 2.118-2.769.915-.629 2.003-.943 3.205-.943 1.201 0 2.232.314 3.147.943a5.67 5.67 0 012.118 2.706c.515 1.195.744 2.579.744 4.152v.818h.114zm-2.575-.881c0-1.762-.286-3.146-.916-4.09-.63-.943-1.488-1.447-2.632-1.447-1.088 0-1.946.504-2.576 1.448-.63.943-.916 2.264-.973 4.026v.944c0 1.761.286 3.146.916 4.09.63.943 1.488 1.446 2.633 1.446 1.144 0 2.003-.503 2.575-1.447.63-.944.916-2.328.916-4.152v-.818h.057zm18.772 8.493H110.4l-6.525-11.45v11.45H101.3V21.642h2.518l6.525 11.45v-11.45h2.518v16.106h.057zm14.422-4.215c-.286 0-.458.126-.629.315-.172.188-.286.566-.458 1.132-.172.566-.286.944-.515 1.321-.344.63-.801.944-1.374.944-.515 0-.915-.189-1.202-.63-.343-.44-.457-1.006-.457-1.698 0-.44.057-.88.228-1.258.172-.377.401-.63.687-.88.286-.19.63-.315.973-.315v1.132c-.343 0-.572.126-.744.315-.172.188-.286.503-.286.943 0 .378.057.692.229.881.172.189.343.315.629.315.229 0 .401-.126.573-.315.171-.252.286-.629.458-1.132.114-.504.286-.944.457-1.259.172-.314.401-.566.63-.692.229-.126.515-.251.801-.251.515 0 .916.188 1.202.629.286.44.458 1.006.458 1.761 0 .504-.057.944-.229 1.322a2.763 2.763 0 01-.687.943c-.286.252-.629.315-1.03.315v-1.196c.344 0 .63-.125.801-.377.172-.252.287-.63.287-1.07 0-.377-.058-.692-.229-.943-.172-.126-.344-.252-.573-.252zm-3.72-7.927v2.076h5.266v1.133h-5.266v2.076h-.858v-5.348h.858v.063zm-.858-6.732h4.063c.63 0 1.145.252 1.545.692.401.44.573 1.07.573 1.825 0 .755-.172 1.384-.573 1.824-.4.44-.915.692-1.545.692h-4.063v-1.132h4.063c.401 0 .744-.126.916-.315.229-.251.343-.566.343-1.006 0-.881-.458-1.322-1.316-1.322h-4.063v-1.258h.057zm6.124-2.202h-6.124v-1.95c0-.566.114-1.133.343-1.573.229-.44.572-.818 1.03-1.07a3.155 3.155 0 011.546-.377h.286c.572 0 1.087.126 1.545.377.458.252.801.63 1.03 1.07.229.44.344 1.007.344 1.636v1.887zm-5.266-1.195h4.407v-.755c0-.63-.172-1.07-.515-1.384-.343-.315-.858-.504-1.488-.504h-.343c-.687 0-1.145.19-1.546.504-.343.314-.515.755-.515 1.384v.755zm5.266-7.172v1.132h-6.124V8.305h6.124zM126.024.566c.572 0 1.145.126 1.602.315.458.251.802.566 1.031 1.006.229.44.343.881.343 1.447a2.97 2.97 0 01-.343 1.447c-.229.44-.573.755-1.031 1.007a3.15 3.15 0 01-1.545.378h-.343a4.323 4.323 0 01-1.603-.315c-.458-.252-.801-.566-1.03-1.007a2.97 2.97 0 01-.343-1.447c0-.566.114-1.006.343-1.447.229-.44.572-.755 1.03-1.006a3.156 3.156 0 011.546-.378h.343zm-.343 1.196c-.687 0-1.202.125-1.546.44-.343.252-.515.692-.515 1.195 0 .504.172.881.515 1.196.344.251.859.44 1.546.44h.343c.687 0 1.202-.126 1.545-.44.344-.315.573-.692.573-1.196 0-.503-.172-.943-.516-1.195-.343-.252-.858-.44-1.545-.44h-.4zM116.867 0h1.717v37.748h-1.717V0z" fill="#FDFDFD"/></svg>